# xmcd
#
# Track frame offsets:
#	182
#	17250
#	33362
#	54557
#	71722
#	94787
#	115600
#	136965
#	158767
#	179362
#	205250
#	229417
#	252652
#	267570
#
# Disc length: 3718 seconds
# Revision: 4
# Processed by: cddbd v1.5.2PL0 Copyright (c) Steve Scherf et al.
# Submitted via: dBpowerAMP V12.0
#
DISCID=c30e840e
DTITLE=Various Artist - Blues Balads Vol 2 - CD1 [dBP]
DYEAR=1990
DGENRE=Blues
TTITLE0=Muddy Waters - Little Girl
TTITLE1=John Lee Hooker - Wednesday Evenin' Blues
TTITLE2=Koko Taylor - Walking the Back Streets
TTITLE3=Rufus Thomos - Somebody's Got to Go
TTITLE4=Big Twist and the Mellow Fellows - Steamroller Blues
TTITLE5=Roy Buchanan - Mrs Pressure
TTITLE6=Albert Collins and Barrelhouse - Converstation With Collins (Live)
TTITLE7=Johnny Copeland - It's My Own Tears
TTITLE8=Lil'Ed and the Blues Imperials - Car Wash Blues
TTITLE9=Trudy Lynn - Trudy Sings the Blues
TTITLE10=Lonnie Brooks - In the Dark
TTITLE11=Hans Theesink - Stones in My Passway
TTITLE12=Katie Webster - Sea of Love
TTITLE13=Justine Palmelay - Miss Celie's Blues
EXTD=
EXTT0=
EXTT1=
EXTT2=
EXTT3=
EXTT4=
EXTT5=
EXTT6=
EXTT7=
EXTT8=
EXTT9=
EXTT10=
EXTT11=
EXTT12=
EXTT13=
PLAYORDER=
